HIERARCHY
ROOT Hips
{
 OFFSET 0.000000 0.000000 0.000000
 CHANNELS 6 Xposition Yposition Zposition Yrotation Xrotation Zrotation
 JOINT Chest
 {
  OFFSET 0.000000 9.585900 0.002600
  CHANNELS 3 Yrotation Xrotation Zrotation
  JOINT Chest2
  {
   OFFSET 0.000000 9.601200 -0.005300
   CHANNELS 3 Yrotation Xrotation Zrotation
   JOINT Chest3
   {
    OFFSET 0.000000 9.561800 0.000000
    CHANNELS 3 Yrotation Xrotation Zrotation
    JOINT Chest4
    {
     OFFSET 0.000000 9.552100 0.000000
     CHANNELS 3 Yrotation Xrotation Zrotation
     JOINT Neck
     {
      OFFSET 0.000000 14.453000 0.000000
      CHANNELS 3 Yrotation Xrotation Zrotation
      JOINT Head
      {
       OFFSET 0.000000 8.936500 -0.011300
       CHANNELS 3 Yrotation Xrotation Zrotation
       End Site
       {
        OFFSET 0.000000 17.073600 -0.006000
       }
      }
     }
     JOINT RightCollar
     {
      OFFSET -2.921100 9.558500 0.000000
      CHANNELS 3 Yrotation Xrotation Zrotation
      JOINT RightShoulder
      {
       OFFSET -13.519700 0.000000 0.000000
       CHANNELS 3 Yrotation Xrotation Zrotation
       JOINT RightElbow
       {
        OFFSET 0.000000 -29.696600 0.000000
        CHANNELS 3 Yrotation Xrotation Zrotation
        JOINT RightWrist
        {
         OFFSET 0.000000 -24.004700 0.000000
         CHANNELS 3 Yrotation Xrotation Zrotation
         End Site
         {
          OFFSET 0.000000 -17.728500 0.000000
         }
        }
       }
      }
     }
     JOINT LeftCollar
     {
      OFFSET 2.921100 9.558500 0.000000
      CHANNELS 3 Yrotation Xrotation Zrotation
      JOINT LeftShoulder
      {
       OFFSET 13.519700 0.000000 0.000000
       CHANNELS 3 Yrotation Xrotation Zrotation
       JOINT LeftElbow
       {
        OFFSET 0.000000 -29.696600 0.000000
        CHANNELS 3 Yrotation Xrotation Zrotation
        JOINT LeftWrist
        {
         OFFSET 0.000000 -24.004700 0.000000
         CHANNELS 3 Yrotation Xrotation Zrotation
         End Site
         {
          OFFSET 0.000000 -17.728500 0.000000
         }
        }
       }
      }
     }
    }
   }
  }
 }
 JOINT RightHip
 {
  OFFSET -7.771700 -0.012900 -0.001300
  CHANNELS 3 Yrotation Xrotation Zrotation
  JOINT RightKnee
  {
   OFFSET 0.000000 -40.869800 0.001200
   CHANNELS 3 Yrotation Xrotation Zrotation
   JOINT RightAnkle
   {
    OFFSET 0.000000 -39.717900 0.002100
    CHANNELS 3 Yrotation Xrotation Zrotation
    JOINT RightToe
    {
     OFFSET 0.000000 -4.965400 11.033500
     CHANNELS 3 Yrotation Xrotation Zrotation
     End Site
     {
      OFFSET 0.000000 -1.423100 5.872300
     }
    }
   }
  }
 }
 JOINT LeftHip
 {
  OFFSET 7.771700 -0.012900 -0.001300
  CHANNELS 3 Yrotation Xrotation Zrotation
  JOINT LeftKnee
  {
   OFFSET 0.000000 -40.869800 0.001200
   CHANNELS 3 Yrotation Xrotation Zrotation
   JOINT LeftAnkle
   {
    OFFSET 0.000000 -39.717900 0.002100
    CHANNELS 3 Yrotation Xrotation Zrotation
    JOINT LeftToe
    {
     OFFSET 0.000000 -4.965400 11.033500
     CHANNELS 3 Yrotation Xrotation Zrotation
     End Site
     {
      OFFSET 0.000000 -1.423100 5.872300
     }
    }
   }
  }
 }
}
MOTION
Frames: 10
Frame Time: 0.008333
-37.103808 44.332341 35.596583 178.061311 -38.552203 0.401570 -1.402226 29.613104 1.924302 -0.380419 5.705421 0.552643 -0.578895 8.897981 0.855741 -1.280440 23.700521 2.149418 0.549659 13.816327 -11.288907 3.338270 -10.794176 -12.836621 14.783710 0.993506 -3.041554 -14.358223 -25.301627 -0.224622 -69.837903 -31.755054 39.689929 -27.318016 -13.397520 -24.703621 -22.868693 -0.696604 -6.856526 19.344518 -29.479720 -4.976327 73.153738 -36.004916 -48.462491 28.689425 -8.145546 27.563426 -1.000337 -54.073714 7.971663 -152.819679 71.281709 -152.383806 -13.706176 -25.004665 9.134745 0.353470 -1.061436 0.170841 3.334010 -42.985775 -7.219219 173.105081 65.051292 173.233888 -0.789210 -34.081717 2.782371 0.155868 0.487349 0.077213
-37.102215 44.331714 35.597363 178.063903 -38.551490 0.388602 -1.402000 29.609992 1.936977 -0.378923 5.702132 0.553372 -0.579741 8.900362 0.854317 -1.285271 23.694553 2.150220 0.543456 13.825546 -11.290905 3.336488 -10.789239 -12.838317 14.788003 0.988701 -3.040983 -14.346534 -25.313582 -0.226457 -69.866930 -31.761570 39.743494 -27.319637 -13.398199 -24.708530 -22.863953 -0.696864 -6.859777 19.355541 -29.489029 -4.984315 73.140957 -35.993009 -48.443345 28.687694 -8.147504 27.569159 -1.017607 -54.076075 7.989800 -152.865221 71.283391 -152.429365 -13.681734 -25.006780 9.124274 0.372297 -1.062188 0.172316 3.333065 -42.989393 -7.192451 173.132399 65.050746 173.259486 -0.803400 -34.080397 2.791772 0.158288 0.486751 0.084466
-37.104895 44.331546 35.597447 178.066738 -38.554857 0.402672 -1.415191 29.612186 1.918256 -0.383777 5.698279 0.555006 -0.576842 8.901649 0.852811 -1.291786 23.687518 2.147781 0.546624 13.835879 -11.292690 3.325983 -10.785122 -12.835125 14.794079 0.989856 -3.040293 -14.335090 -25.349917 -0.218394 -69.909308 -31.775535 39.817361 -27.288399 -13.398793 -24.766397 -22.853811 -0.696045 -6.863680 19.364207 -29.492501 -4.988227 73.132375 -35.970255 -48.444379 28.698522 -8.164586 27.590964 -1.000723 -54.073964 7.968554 -152.900706 71.282556 -152.466615 -13.699918 -25.018426 9.131835 0.338620 -1.055786 0.165089 3.347609 -42.985258 -7.204517 173.136428 65.056078 173.254007 -0.812871 -34.074982 2.806996 0.151717 0.486217 0.080218
-37.107550 44.331181 35.597770 178.062994 -38.556337 0.421461 -1.424047 29.607400 1.899243 -0.386651 5.691664 0.553266 -0.576924 8.905603 0.853450 -1.295929 23.687709 2.143444 0.536635 13.838826 -11.290945 3.315661 -10.779934 -12.833645 14.801463 0.988582 -3.037972 -14.321591 -25.358179 -0.220020 -69.954726 -31.792790 39.890523 -27.258030 -13.397473 -24.831860 -22.846982 -0.696776 -6.863394 19.369985 -29.486902 -4.990587 73.146558 -35.949293 -48.460483 28.730110 -8.189860 27.579271 -0.977653 -54.072607 7.948363 -152.894305 71.280678 -152.459139 -13.736071 -25.033781 9.145310 0.349807 -1.038972 0.162540 3.367680 -42.982669 -7.220636 173.146683 65.059709 173.258346 -0.819583 -34.071177 2.814275 0.156031 0.484803 0.078001
-37.107073 44.330468 35.598617 178.066150 -38.554741 0.417099 -1.427947 29.600539 1.899217 -0.386033 5.689405 0.552916 -0.582868 8.893813 0.849673 -1.289584 23.704388 2.146150 0.520545 13.833597 -11.289156 3.305163 -10.775855 -12.828425 14.802920 0.981198 -3.035439 -14.307611 -25.361477 -0.224061 -69.975151 -31.801572 39.914251 -27.272030 -13.385441 -24.786615 -22.843196 -0.707729 -6.855286 19.386645 -29.482851 -4.997796 73.129993 -35.925916 -48.461174 28.735585 -8.211008 27.572730 -0.984236 -54.074094 7.955215 -152.899184 71.281246 -152.464704 -13.728964 -25.037829 9.145904 0.322168 -1.039283 0.155959 3.382799 -42.987326 -7.211871 173.167893 65.058757 173.282354 -0.829409 -34.063790 2.819527 0.155057 0.479284 0.089211
-37.108060 44.330471 35.598520 178.072772 -38.560385 0.418509 -1.435886 29.599036 1.892467 -0.386693 5.694225 0.552992 -0.586979 8.885708 0.847549 -1.291157 23.702016 2.141021 0.491793 13.828750 -11.285778 3.311866 -10.766181 -12.826385 14.806788 0.981990 -3.024296 -14.299191 -25.356448 -0.230688 -70.016368 -31.824902 40.004020 -27.271900 -13.388169 -24.729413 -22.837282 -0.703375 -6.848539 19.393543 -29.482547 -5.002059 73.136036 -35.907647 -48.472299 28.733199 -8.223265 27.562356 -0.987253 -54.064884 7.952280 -152.899762 71.282464 -152.472871 -13.714181 -25.048971 9.147488 0.378882 -1.037404 0.157663 3.387792 -42.982527 -7.214618 173.172527 65.061138 173.284645 -0.833951 -34.059575 2.826201 0.154927 0.477875 0.086865
-37.107161 44.329606 35.599609 178.072666 -38.557753 0.410724 -1.436157 29.591149 1.898402 -0.387343 5.692761 0.552486 -0.586758 8.882327 0.845667 -1.302161 23.690530 2.133050 0.488118 13.842161 -11.282454 3.268850 -10.764757 -12.811347 14.820583 0.997697 -3.012954 -14.287331 -25.364553 -0.230175 -70.048845 -31.856183 40.078135 -27.270546 -13.388571 -24.725669 -22.822392 -0.688557 -6.848597 19.391883 -29.480880 -5.004005 73.140062 -35.901290 -48.481486 28.736010 -8.232503 27.546486 -1.010526 -54.064118 7.981542 -152.859086 71.280896 -152.447747 -13.674131 -25.050858 9.135022 0.356871 -1.037894 0.162903 3.385821 -42.987783 -7.198134 173.183173 65.062430 173.292617 -0.833816 -34.057382 2.832235 0.153038 0.477813 0.083192
-37.108542 44.329422 35.599809 178.076570 -38.561806 0.411764 -1.442989 29.586889 1.892623 -0.391425 5.685961 0.549948 -0.586305 8.887350 0.845639 -1.298533 23.697037 2.132870 0.471592 13.837657 -11.281500 3.257320 -10.759976 -12.806764 14.823235 0.995371 -3.008664 -14.275519 -25.369746 -0.225387 -70.075499 -31.891651 40.136980 -27.267734 -13.384937 -24.729912 -22.817311 -0.691379 -6.844895 19.376969 -29.479099 -5.002678 73.148305 -35.915713 -48.506933 28.738637 -8.237887 27.564357 -1.013991 -54.061103 7.982777 -152.831852 71.277859 -152.427190 -13.658329 -25.036242 9.116816 0.352583 -1.053420 0.176825 3.393422 -42.986118 -7.196979 173.195692 65.063870 173.302321 -0.841157 -34.047721 2.839864 0.155503 0.472111 0.084076
-37.109565 44.329562 35.599692 178.081368 -38.568610 0.407597 -1.450478 29.588795 1.891516 -0.393767 5.682281 0.547740 -0.586527 8.886724 0.844964 -1.302319 23.695509 2.130033 0.462765 13.841940 -11.281120 3.253438 -10.754473 -12.805263 14.829943 0.992995 -2.996292 -14.263207 -25.366679 -0.224116 -70.097213 -31.931562 40.199163 -27.261986 -13.376683 -24.733884 -22.803579 -0.687212 -6.847196 19.364159 -29.477009 -5.000179 73.146698 -35.930683 -48.515343 28.734472 -8.234274 27.568349 -1.021228 -54.054500 7.989176 -152.815684 71.276392 -152.412757 -13.657062 -25.020055 9.108885 0.347500 -1.067607 0.180185 3.397420 -42.981262 -7.194526 173.201069 65.064037 173.310063 -0.845138 -34.040094 2.840684 0.158892 0.467745 0.086267
-37.111339 44.329214 35.600253 178.082316 -38.570069 0.408057 -1.456522 29.584563 1.885029 -0.395103 5.682317 0.549403 -0.586239 8.885974 0.844720 -1.316355 23.681477 2.125356 0.461352 13.856760 -11.283230 3.245762 -10.750557 -12.806129 14.846509 1.011384 -2.993061 -14.256172 -25.369258 -0.198456 -70.118852 -31.984930 40.260296 -27.257803 -13.368153 -24.738324 -22.783085 -0.671908 -6.857030 19.362068 -29.472462 -4.998884 73.138373 -35.948926 -48.531694 28.726037 -8.226068 27.572755 -1.014684 -54.053358 7.984644 -152.777576 71.273196 -152.376760 -13.642269 -25.004499 9.105413 0.348552 -1.074372 0.179898 3.406122 -42.981902 -7.192361 173.210098 65.065318 173.315757 -0.847447 -34.032635 2.846024 0.156657 0.464260 0.086908
